<svg width="140" height="116" viewBox="0 0 140 116" fill="none" xmlns="http://www.w3.org/2000/svg">
<path d="M70.0625 0C78.0869 0 84.5208 6.43396 84.5208 14.4583C84.5208 22.4827 78.0869 28.9167 70.0625 28.9167C62.0381 28.9167 55.6042 22.4827 55.6042 14.4583C55.6042 6.43396 62.1104 0 70.0625 0ZM135.125 86.75C135.125 86.75 135.125 86.75 135.125 86.75C135.125 86.75 139.5 86.75 139.5 79.5208C139.5 72.2917 135.125 72.2917 135.125 72.2917C135.125 72.2917 135.125 72.2917 135.125 72.2917C118.932 72.2917 105.052 65.3517 94.6417 52.9175L84.9546 41.3508C83.6096 39.7205 81.9202 38.4082 80.0079 37.5082C78.0955 36.6083 76.0075 36.143 73.894 36.1458H66.4479C62.0381 36.1458 57.9898 38.0254 55.2427 41.3508L45.5556 52.9175C35.0733 65.3517 21.1933 72.2917 5 72.2917C5 72.2917 5 72.2917 5 72.2917C5 72.2917 0 72.2917 0 79.5208C0 86.75 5 86.75 5 86.75C5 86.75 5 86.75 5 86.75C24.1253 86.75 40.9425 79.0347 53.8143 65.2416C54.4452 64.5655 55.6042 65.003 55.6042 65.9277V78.8435C55.6042 79.2525 55.355 79.6204 54.9751 79.7721L27.555 90.726C22.7115 92.6779 19.4583 97.5937 19.4583 102.726C19.4583 109.883 25.2417 115.667 32.3985 115.667H47.375C47.9273 115.667 48.375 115.219 48.375 114.667V112.052C48.375 107.259 50.2791 102.662 53.6684 99.2726C57.0578 95.8833 61.6547 93.9792 66.4479 93.9792H88.1354C90.1596 93.9792 91.75 95.5696 91.75 97.5938C91.75 99.6179 90.1596 101.208 88.1354 101.208H66.4479C60.4477 101.208 55.6042 106.052 55.6042 112.052V114.667C55.6042 115.219 56.0519 115.667 56.6042 115.667H107.726C114.883 115.667 120.667 109.883 120.667 102.726C120.667 97.5937 117.414 92.6779 112.57 90.726L85.1498 79.7721C84.77 79.6204 84.5208 79.2525 84.5208 78.8435V65.9277C84.5208 65.003 85.6798 64.5655 86.3107 65.2416C99.1825 79.0347 116 86.75 135.125 86.75Z" fill="url(#paint0_linear_2110_64562)"/>
<defs>
<linearGradient id="paint0_linear_2110_64562" x1="70.0625" y1="0" x2="70.0625" y2="115.667" gradientUnits="userSpaceOnUse">
<stop stop-color="#3182CE"/>
<stop offset="1" stop-color="#CD01B0"/>
</linearGradient>
</defs>
</svg>
